<svg id="visual" viewBox="0 0 960 540" width="960" height="540" xmlns="http://www.w3.org/2000/svg" xmlns:xlink="http://www.w3.org/1999/xlink" version="1.1"><rect x="0" y="0" width="960" height="540" fill="#001220"></rect><g fill="none" stroke="#7CCF00" stroke-width="2"><circle r="22" cx="884" cy="57"></circle><circle r="16" cx="140" cy="412"></circle><circle r="19" cx="689" cy="450"></circle><circle r="16" cx="192" cy="192"></circle><circle r="16" cx="802" cy="132"></circle><circle r="20" cx="626" cy="178"></circle><circle r="17" cx="764" cy="282"></circle><circle r="19" cx="603" cy="245"></circle><circle r="18" cx="219" cy="323"></circle><circle r="15" cx="63" cy="382"></circle><circle r="15" cx="824" cy="294"></circle><circle r="15" cx="433" cy="533"></circle><circle r="19" cx="313" cy="468"></circle><circle r="18" cx="887" cy="468"></circle><circle r="17" cx="628" cy="67"></circle><circle r="17" cx="717" cy="364"></circle><circle r="18" cx="853" cy="144"></circle><circle r="19" cx="800" cy="381"></circle><circle r="19" cx="383" cy="65"></circle><circle r="17" cx="354" cy="230"></circle><circle r="20" cx="663" cy="330"></circle><circle r="16" cx="533" cy="149"></circle><circle r="19" cx="932" cy="311"></circle><circle r="20" cx="66" cy="205"></circle><circle r="19" cx="691" cy="114"></circle><circle r="18" cx="603" cy="400"></circle><circle r="18" cx="300" cy="143"></circle><circle r="17" cx="782" cy="429"></circle><circle r="19" cx="180" cy="80"></circle><circle r="17" cx="257" cy="510"></circle><circle r="15" cx="905" cy="260"></circle><circle r="18" cx="250" cy="245"></circle><circle r="19" cx="528" cy="43"></circle><circle r="19" cx="19" cy="517"></circle><circle r="15" cx="492" cy="363"></circle><circle r="18" cx="205" cy="469"></circle><circle r="17" cx="667" cy="378"></circle><circle r="16" cx="832" cy="204"></circle><circle r="18" cx="505" cy="266"></circle><circle r="15" cx="921" cy="176"></circle><circle r="19" cx="74" cy="93"></circle><circle r="16" cx="260" cy="189"></circle><circle r="17" cx="803" cy="67"></circle><circle r="15" cx="200" cy="268"></circle><circle r="15" cx="248" cy="392"></circle><circle r="17" cx="99" cy="308"></circle><circle r="19" cx="55" cy="32"></circle><circle r="20" cx="379" cy="377"></circle><circle r="20" cx="769" cy="507"></circle><circle r="19" cx="344" cy="27"></circle><circle r="19" cx="479" cy="217"></circle><circle r="17" cx="436" cy="335"></circle><circle r="17" cx="701" cy="282"></circle><circle r="15" cx="338" cy="328"></circle><circle r="16" cx="534" cy="522"></circle><circle r="16" cx="371" cy="120"></circle><circle r="19" cx="125" cy="7"></circle><circle r="16" cx="954" cy="483"></circle><circle r="15" cx="474" cy="137"></circle><circle r="15" cx="286" cy="85"></circle><circle r="15" cx="314" cy="401"></circle><circle r="15" cx="781" cy="185"></circle><circle r="15" cx="731" cy="38"></circle><circle r="16" cx="676" cy="501"></circle><circle r="16" cx="220" cy="119"></circle><circle r="16" cx="33" cy="281"></circle><circle r="18" cx="527" cy="208"></circle><circle r="19" cx="112" cy="458"></circle><circle r="15" cx="482" cy="480"></circle><circle r="18" cx="710" cy="538"></circle><circle r="19" cx="891" cy="525"></circle><circle r="20" cx="15" cy="138"></circle><circle r="20" cx="297" cy="222"></circle><circle r="19" cx="460" cy="8"></circle><circle r="18" cx="608" cy="484"></circle><circle r="20" cx="98" cy="136"></circle><circle r="18" cx="859" cy="419"></circle><circle r="15" cx="947" cy="39"></circle><circle r="20" cx="74" cy="502"></circle><circle r="19" cx="418" cy="483"></circle><circle r="16" cx="587" cy="538"></circle><circle r="17" cx="447" cy="393"></circle><circle r="16" cx="623" cy="291"></circle><circle r="20" cx="60" cy="434"></circle><circle r="18" cx="827" cy="525"></circle><circle r="16" cx="396" cy="7"></circle><circle r="15" cx="289" cy="317"></circle><circle r="20" cx="842" cy="26"></circle><circle r="18" cx="457" cy="56"></circle><circle r="20" cx="311" cy="517"></circle><circle r="20" cx="497" cy="90"></circle><circle r="15" cx="721" cy="485"></circle><circle r="16" cx="134" cy="211"></circle><circle r="18" cx="557" cy="301"></circle><circle r="20" cx="110" cy="364"></circle><circle r="16" cx="254" cy="30"></circle><circle r="17" cx="592" cy="36"></circle><circle r="20" cx="863" cy="321"></circle><circle r="17" cx="676" cy="14"></circle><circle r="17" cx="188" cy="520"></circle><circle r="16" cx="743" cy="150"></circle><circle r="15" cx="562" cy="439"></circle><circle r="20" cx="666" cy="232"></circle><circle r="19" cx="583" cy="341"></circle><circle r="19" cx="388" cy="270"></circle><circle r="17" cx="502" cy="422"></circle><circle r="17" cx="824" cy="451"></circle><circle r="17" cx="482" cy="536"></circle><circle r="20" cx="429" cy="115"></circle><circle r="15" cx="174" cy="24"></circle><circle r="17" cx="785" cy="233"></circle><circle r="19" cx="369" cy="427"></circle><circle r="17" cx="173" cy="130"></circle><circle r="17" cx="583" cy="86"></circle><circle r="15" cx="358" cy="491"></circle><circle r="20" cx="756" cy="94"></circle><circle r="16" cx="415" cy="179"></circle><circle r="15" cx="917" cy="119"></circle><circle r="18" cx="874" cy="368"></circle><circle r="15" cx="11" cy="447"></circle><circle r="16" cx="579" cy="181"></circle><circle r="15" cx="458" cy="277"></circle><circle r="18" cx="123" cy="62"></circle><circle r="18" cx="940" cy="530"></circle><circle r="16" cx="196" cy="402"></circle><circle r="17" cx="711" cy="201"></circle><circle r="20" cx="939" cy="383"></circle><circle r="17" cx="10" cy="373"></circle><circle r="20" cx="541" cy="381"></circle><circle r="20" cx="306" cy="272"></circle><circle r="19" cx="733" cy="422"></circle><circle r="19" cx="938" cy="434"></circle><circle r="15" cx="388" cy="321"></circle><circle r="19" cx="82" cy="253"></circle><circle r="20" cx="126" cy="534"></circle><circle r="19" cx="7" cy="75"></circle><circle r="18" cx="7" cy="1"></circle><circle r="20" cx="956" cy="229"></circle><circle r="18" cx="153" cy="294"></circle><circle r="20" cx="6" cy="237"></circle><circle r="20" cx="768" cy="335"></circle><circle r="15" cx="850" cy="91"></circle><circle r="17" cx="345" cy="178"></circle><circle r="20" cx="649" cy="422"></circle><circle r="20" cx="164" cy="346"></circle><circle r="19" cx="643" cy="122"></circle><circle r="16" cx="553" cy="253"></circle><circle r="20" cx="958" cy="146"></circle><circle r="20" cx="634" cy="525"></circle><circle r="20" cx="430" cy="234"></circle><circle r="15" cx="259" cy="443"></circle><circle r="15" cx="48" cy="336"></circle><circle r="19" cx="855" cy="246"></circle><circle r="18" cx="912" cy="2"></circle><circle r="16" cx="775" cy="1"></circle><circle r="20" cx="2" cy="187"></circle><circle r="15" cx="499" cy="315"></circle><circle r="18" cx="230" cy="71"></circle><circle r="17" cx="153" cy="485"></circle><circle r="19" cx="677" cy="66"></circle><circle r="16" cx="556" cy="3"></circle><circle r="19" cx="297" cy="9"></circle><circle r="18" cx="448" cy="444"></circle><circle r="17" cx="884" cy="208"></circle><circle r="15" cx="734" cy="244"></circle><circle r="20" cx="1" cy="321"></circle><circle r="17" cx="337" cy="78"></circle><circle r="15" cx="530" cy="474"></circle><circle r="17" cx="957" cy="91"></circle><circle r="17" cx="385" cy="530"></circle></g></svg>