<svg id="visual" viewBox="0 0 960 540" width="960" height="540" xmlns="http://www.w3.org/2000/svg" xmlns:xlink="http://www.w3.org/1999/xlink" version="1.1"><rect x="0" y="0" width="960" height="540" fill="#05282b"></rect><path d="M705 540L679.5 527.2C654 514.3 603 488.7 577 463C551 437.3 550 411.7 549.2 386C548.3 360.3 547.7 334.7 517.8 308.8C488 283 429 257 446.3 231.2C463.7 205.3 557.3 179.7 555.8 154C554.3 128.3 457.7 102.7 409.2 77C360.7 51.3 360.3 25.7 360.2 12.8L360 0L960 0L960 12.8C960 25.7 960 51.3 960 77C960 102.7 960 128.3 960 154C960 179.7 960 205.3 960 231.2C960 257 960 283 960 308.8C960 334.7 960 360.3 960 386C960 411.7 960 437.3 960 463C960 488.7 960 514.3 960 527.2L960 540Z" fill="#7CCF00" stroke-linecap="round" stroke-linejoin="miter"></path></svg>